<?xml version="1.0" encoding="utf-8"?>
<!-- Generator: Adobe Illustrator 21.0.2, SVG Export Plug-In . SVG Version: 6.00 Build 0)  -->
<svg version="1.1" xmlns="http://www.w3.org/2000/svg" xmlns:xlink="http://www.w3.org/1999/xlink" x="0px" y="0px"
	 viewBox="0 0 84 84" style="enable-background:new 0 0 84 84;" xml:space="preserve">
<style type="text/css">
	.st0{fill:#FFFFF5;}
	.st1{fill:#596370;}
	.st2{fill:#E95513;}
	.st3{fill:#FFFFE4;}
	.st4{fill:#FFFFFF;}
	.st5{fill:none;stroke:#E95513;stroke-miterlimit:10;}
</style>
<g id="Landing_Page_4">
</g>
<g id="Landing_Page_3">
</g>
<g id="Landing_Page_2">
	<g>
		<path class="st2" d="M51.3,54.4c0.2,0.5,0.7,0.8,1.2,0.8c0.2,0,0.3,0,0.5-0.1l15.9-6.4c0.5-0.2,0.8-0.7,0.8-1.2
			c0-0.5-0.3-1-0.8-1.2l-15.9-6.8c-0.7-0.3-1.4,0-1.7,0.7c-0.3,0.7,0,1.5,0.7,1.7L65,47.4l-12.9,5.3C51.4,52.9,51.1,53.7,51.3,54.4
			L51.3,54.4z M51.3,54.4"/>
		<path class="st2" d="M17.7,48.7l15.9,6.4c0.2,0.1,0.3,0.1,0.5,0.1c0.5,0,1-0.3,1.2-0.8c0.3-0.7-0.1-1.4-0.7-1.7l-12.9-5.3
			l12.9-5.5c0.7-0.3,1-1.1,0.7-1.7c-0.3-0.7-1.1-1-1.7-0.7l-15.8,6.8c-0.5,0.2-0.8,0.7-0.8,1.2C16.9,48,17.2,48.5,17.7,48.7
			L17.7,48.7z M17.7,48.7"/>
		<path class="st2" d="M37.5,60.4c0.2,0.1,0.4,0.1,0.5,0.1c0.5,0,1-0.3,1.2-0.8l10.6-23.8c0.3-0.7,0-1.5-0.7-1.7
			c-0.7-0.3-1.4,0-1.7,0.7L36.8,58.6C36.5,59.3,36.8,60.1,37.5,60.4L37.5,60.4z M37.5,60.4"/>
		<path class="st2" d="M79,6.3H5c-2.9,0-5.3,2.4-5.3,5.3v60.8c0,2.9,2.4,5.3,5.3,5.3h74c2.9,0,5.3-2.4,5.3-5.3V11.6
			C84.3,8.7,81.9,6.3,79,6.3L79,6.3z M81.6,72.4c0,1.5-1.2,2.6-2.6,2.6H5c-1.5,0-2.6-1.2-2.6-2.6V20.9h79.3V72.4z M81.6,18.2H2.4
			v-6.6C2.4,10.2,3.6,9,5,9h74c1.5,0,2.6,1.2,2.6,2.6V18.2z M81.6,18.2"/>
		<path class="st2" d="M7.7,11.6c-1.3,0-2.3,1-2.3,2.3c0,1.3,1,2.3,2.3,2.3c1.3,0,2.3-1,2.3-2.3C10,12.7,8.9,11.6,7.7,11.6L7.7,11.6
			z M7.7,14.9c-0.5,0-1-0.4-1-1c0-0.5,0.4-1,1-1c0.5,0,1,0.4,1,1C8.6,14.5,8.2,14.9,7.7,14.9L7.7,14.9z M7.7,14.9"/>
		<path class="st2" d="M20.9,11.6c-1.3,0-2.3,1-2.3,2.3c0,1.3,1,2.3,2.3,2.3c1.3,0,2.3-1,2.3-2.3C23.2,12.7,22.1,11.6,20.9,11.6
			L20.9,11.6z M20.9,14.9c-0.5,0-1-0.4-1-1c0-0.5,0.4-1,1-1c0.5,0,1,0.4,1,1C21.9,14.5,21.4,14.9,20.9,14.9L20.9,14.9z M20.9,14.9"
			/>
		<path class="st2" d="M14.3,11.6c-1.3,0-2.3,1-2.3,2.3c0,1.3,1,2.3,2.3,2.3c1.3,0,2.3-1,2.3-2.3C16.6,12.7,15.5,11.6,14.3,11.6
			L14.3,11.6z M14.3,14.9c-0.5,0-1-0.4-1-1c0-0.5,0.4-1,1-1c0.5,0,1,0.4,1,1C15.2,14.5,14.8,14.9,14.3,14.9L14.3,14.9z M14.3,14.9"
			/>
	</g>
</g>
<g id="Landing_Page_1">
</g>
<g id="Icons_and_Form_Fields">
</g>
</svg>
