<?xml version="1.0" encoding="utf-8"?>
<!-- Generator: Adobe Illustrator 21.0.2, SVG Export Plug-In . SVG Version: 6.00 Build 0)  -->
<svg version="1.1" xmlns="http://www.w3.org/2000/svg" xmlns:xlink="http://www.w3.org/1999/xlink" x="0px" y="0px"
	 viewBox="0 0 84 84" style="enable-background:new 0 0 84 84;" xml:space="preserve">
<style type="text/css">
	.st0{fill:#FFFFF5;}
	.st1{fill:#596370;}
	.st2{fill:#E95513;}
	.st3{fill:#FFFFE4;}
	.st4{fill:#FFFFFF;}
	.st5{fill:none;stroke:#E95513;stroke-miterlimit:10;}
</style>
<g id="Landing_Page_4">
</g>
<g id="Landing_Page_3">
</g>
<g id="Landing_Page_2">
	<g>
		<path class="st2" d="M39.1,36.3h38V6.8H65.8v4.5h-9.1v4.5h-9.1v4.5h-5.1c-2-7.9-9.3-13.6-17.6-13.6C15,6.8,6.8,15,6.8,25
			c0,7.6,4.7,14.1,11.3,16.8v3.6h-2.3v2.3h2.3v22.7c0,3.8,3.1,6.8,6.8,6.8s6.8-3.1,6.8-6.8V47.7h2.3v-2.3h-2.3v-3.6
			c1-0.4,2.1-0.9,3-1.5l15.1,28c-0.7,0.9-1.1,2-1.1,3.3c0,3.1,2.5,5.7,5.7,5.7c3.1,0,5.7-2.5,5.7-5.7c0-1.6-0.6-3-1.7-4L70,49.7
			c0.5,0.1,1,0.2,1.5,0.2c3.1,0,5.7-2.5,5.7-5.7s-2.5-5.7-5.7-5.7c-3.1,0-5.7,2.5-5.7,5.7c0,1.8,0.8,3.4,2.1,4.4L56.6,66.2
			c-0.7-0.3-1.4-0.4-2.1-0.4c-1.1,0-2,0.3-2.9,0.8L36.6,38.9C37.5,38.1,38.4,37.3,39.1,36.3z M71.5,40.9c1.9,0,3.4,1.5,3.4,3.4
			s-1.5,3.4-3.4,3.4c-1.9,0-3.4-1.5-3.4-3.4S69.6,40.9,71.5,40.9z M57.9,71.5c0,1.9-1.5,3.4-3.4,3.4c-1.9,0-3.4-1.5-3.4-3.4
			c0-1.9,1.5-3.4,3.4-3.4C56.4,68.1,57.9,69.6,57.9,71.5z M29.5,25v7.8c-1.4,0.8-2.9,1.2-4.5,1.2c-5,0-9.1-4.1-9.1-9.1
			s4.1-9.1,9.1-9.1s9.1,4.1,9.1,9.1H29.5z M31.8,27.3h6.8v6.8h-6.8V27.3z M65.8,13.6v15.9h2.3V9.1h6.8v25h-6.8v-2.3h-2.3v2.3H59
			V13.6H65.8z M49.9,25v-6.8h6.8v15.9h-6.8v-6.8h-2.3v6.8h-6.8V22.7h6.8V25H49.9z M9.1,25c0-8.8,7.1-15.9,15.9-15.9
			c7.1,0,13.2,4.7,15.2,11.3h-1.6V25h-2.3c0-6.3-5.1-11.3-11.3-11.3S13.6,18.7,13.6,25S18.7,36.3,25,36.3c1.6,0,3.1-0.3,4.5-1v1h6.6
			c-2.9,2.9-6.9,4.5-11.1,4.5C16.2,40.9,9.1,33.7,9.1,25z M29.5,70.4c0,2.5-2,4.5-4.5,4.5s-4.5-2-4.5-4.5V47.7h9.1V70.4z M29.5,45.4
			h-9.1v-2.9c1.5,0.4,3,0.6,4.5,0.6c1.6,0,3.1-0.2,4.5-0.6V45.4z"/>
	</g>
</g>
<g id="Landing_Page_1">
</g>
<g id="Icons_and_Form_Fields">
</g>
</svg>
