<?xml version="1.0" encoding="utf-8"?>
<!-- Generator: Adobe Illustrator 21.0.2, SVG Export Plug-In . SVG Version: 6.00 Build 0)  -->
<svg version="1.1" xmlns="http://www.w3.org/2000/svg" xmlns:xlink="http://www.w3.org/1999/xlink" x="0px" y="0px"
	 viewBox="0 0 84 84" style="enable-background:new 0 0 84 84;" xml:space="preserve">
<style type="text/css">
	.st0{fill:#FFFFF5;}
	.st1{fill:#596370;}
	.st2{fill:#E95513;}
	.st3{fill:#FFFFE4;}
	.st4{fill:#FFFFFF;}
	.st5{fill:none;stroke:#E95513;stroke-miterlimit:10;}
</style>
<g id="Landing_Page_4">
</g>
<g id="Landing_Page_3">
</g>
<g id="Landing_Page_2">
	<g>
		<path class="st2" d="M75.3,25.4H59.9v-7.7c0-2.1-1.7-3.8-3.8-3.8c-2.1,0-3.8,1.7-3.8,3.8v7.7H13.9c-3.5,0-6.4,2.9-6.4,6.4v20.5
			H6.2c-0.7,0-1.3-0.6-1.3-1.3V17.7c0-0.7,0.6-1.3,1.3-1.3H42c2.1,0,3.8-1.7,3.8-3.8V2.3h-2.6v10.2c0,0.7-0.6,1.3-1.3,1.3H6.2
			c-2.1,0-3.8,1.7-3.8,3.8V51c0,2.1,1.7,3.8,3.8,3.8h1.3v20.5c0,3.5,2.9,6.4,6.4,6.4h61.4c3.5,0,6.4-2.9,6.4-6.4V31.8
			C81.7,28.2,78.8,25.4,75.3,25.4L75.3,25.4z M54.8,17.7c0-0.7,0.6-1.3,1.3-1.3c0.7,0,1.3,0.6,1.3,1.3v21.7h-2.6V17.7z M54.8,42h2.6
			v15.3h-2.6V42z M57.3,59.9v0.9l-1.3,1.9l-1.3-1.9v-0.9H57.3z M54.8,65.4v3.4h2.6v-3.4l2.6-3.8V34.3h12.8v38.4H25.4V34.3h26.9v27.2
			L54.8,65.4z M13.9,27.9h38.4v3.8H10C10,29.7,11.7,27.9,13.9,27.9L13.9,27.9z M10,53.5V34.3h12.8v19.2c0-3.5-2.9-6.4-6.4-6.4
			C12.9,47.1,10,50,10,53.5c0,3.5,2.9,6.4,6.4,6.4c3.5,0,6.4-2.9,6.4-6.4v19.2H10V53.5z M20.3,53.5c0,2.1-1.7,3.8-3.8,3.8
			c-2.1,0-3.8-1.7-3.8-3.8c0-2.1,1.7-3.8,3.8-3.8C18.5,49.7,20.3,51.4,20.3,53.5L20.3,53.5z M79.1,75.3c0,2.1-1.7,3.8-3.8,3.8H13.9
			c-2.1,0-3.8-1.7-3.8-3.8h65.2V31.8H59.9v-3.8h15.3c2.1,0,3.8,1.7,3.8,3.8V75.3z M79.1,75.3"/>
		<path class="st2" d="M17.7,53.5c0,0.7-0.6,1.3-1.3,1.3c-0.7,0-1.3-0.6-1.3-1.3c0-0.7,0.6-1.3,1.3-1.3
			C17.1,52.2,17.7,52.8,17.7,53.5L17.7,53.5z M17.7,53.5"/>
		<rect x="12.6" y="42" class="st2" width="7.7" height="2.6"/>
		<rect x="12.6" y="36.9" class="st2" width="7.7" height="2.6"/>
		<rect x="12.6" y="67.6" class="st2" width="7.7" height="2.6"/>
		<rect x="12.6" y="62.5" class="st2" width="7.7" height="2.6"/>
	</g>
</g>
<g id="Landing_Page_1">
</g>
<g id="Icons_and_Form_Fields">
</g>
</svg>
