<?xml version="1.0" encoding="utf-8"?>
<!-- Generator: Adobe Illustrator 21.0.2, SVG Export Plug-In . SVG Version: 6.00 Build 0)  -->
<svg version="1.1" xmlns="http://www.w3.org/2000/svg" xmlns:xlink="http://www.w3.org/1999/xlink" x="0px" y="0px"
	 viewBox="0 0 84 84" style="enable-background:new 0 0 84 84;" xml:space="preserve">
<style type="text/css">
	.st0{fill:#FFFFF5;}
	.st1{fill:#596370;}
	.st2{fill:#E95513;}
	.st3{fill:#FFFFE4;}
	.st4{fill:#FFFFFF;}
	.st5{fill:none;stroke:#E95513;stroke-miterlimit:10;}
</style>
<g id="Landing_Page_4">
</g>
<g id="Landing_Page_3">
</g>
<g id="Landing_Page_2">
	<g>
		<path class="st2" d="M64.5,44.8c0-0.4-0.1-0.7-0.4-1l-0.4-0.4l0.4-0.4c0.3-0.3,0.4-0.6,0.4-1V37L81,20.5l-2-2l-8.8,8.9L56.7,13.9
			L65.5,5l-2-2L47,19.5h-5c-0.4,0-0.7,0.1-1,0.4l-0.4,0.4l-6-6c-0.3-0.3-0.6-0.4-1-0.4h-2.2L20.5,3l-2,2l3.2,3.2L8.2,21.7L5,18.5
			l-2,2l10.8,10.8v7.9c0,0.4,0.1,0.7,0.4,1l3.8,3.8v4.5L3,63.5l2,2l7.4-7.4l13.5,13.5L18.5,79l2,2l15.1-15.1h5c0.4,0,0.7-0.1,1-0.4
			l1-1H47L63.5,81l2-2l-8.9-8.8l13.5-13.5l8.8,8.9l2-2L64.5,47V44.8z M54.7,15.8l13.5,13.5l-5,5.1L49.6,20.9L54.7,15.8z M47,22.3
			L61.7,37v4.5L42.6,22.3H47z M61.7,45.4V47L47,61.7h-4.5L35,54.1v-1.6l1.8,1.8l2-2l-16-16c-0.3-0.3-0.5-0.7-0.5-1.1
			c0-0.9,0.7-1.6,1.6-1.6c0.4,0,0.8,0.2,1.1,0.5l10.4,10.4l2-2L27,32c-0.3-0.3-0.5-0.7-0.5-1.1c0-0.9,0.7-1.6,1.6-1.6
			c0.4,0,0.8,0.2,1.1,0.5l10.4,10.4l2-2L31.2,27.8c-0.3-0.3-0.5-0.7-0.5-1.1c0-0.9,0.7-1.6,1.6-1.6c0.4,0,0.8,0.2,1.1,0.5L43.8,36
			l2-2L35.4,23.6c-0.3-0.3-0.5-0.7-0.5-1.1c0-0.9,0.7-1.6,1.6-1.6c0.4,0,0.8,0.2,1.1,0.5L61.7,45.4z M23.7,10.2l5,5L15.3,28.8l-5-5
			L23.7,10.2z M16.7,31.3l14.7-14.7H33l1.8,1.8c-1.5,0.7-2.5,2.1-2.6,3.9c-2.3,0.1-4.1,1.9-4.2,4.2c-2.3,0.1-4.1,1.9-4.2,4.2
			c-2.3,0.1-4.2,2-4.2,4.4c0,1.2,0.5,2.3,1.3,3.1l0.9,0.9l-2.2,2.2l-2.8-2.8V31.3z M27.9,69.6L14.4,56.1l5-5.1L33,64.5L27.9,69.6z
			 M35.5,63.1L20.9,48.5V44l2.8-2.8l8.4,8.4v5c0,0.4,0.2,0.7,0.4,1l7.4,7.4H35.5z M54.7,68.2l-5-5l13.5-13.5l5,5L54.7,68.2z
			 M54.7,68.2"/>
		<path class="st2" d="M59.3,56.5l2.8-2.8l2,2l-2.8,2.8L59.3,56.5z M59.3,56.5"/>
		<path class="st2" d="M24.1,62.7l2-2l2.8,2.8l-2,2L24.1,62.7z M24.1,62.7"/>
		<path class="st2" d="M19.9,17.1l2.8-2.8l2,2l-2.8,2.8L19.9,17.1z M19.9,17.1"/>
		<path class="st2" d="M53.7,21.9l2-2l2.8,2.8l-2,2L53.7,21.9z M53.7,21.9"/>
	</g>
</g>
<g id="Landing_Page_1">
</g>
<g id="Icons_and_Form_Fields">
</g>
</svg>
