<?xml version="1.0" encoding="utf-8"?>
<!-- Generator: Adobe Illustrator 21.0.2, SVG Export Plug-In . SVG Version: 6.00 Build 0)  -->
<svg version="1.1" xmlns="http://www.w3.org/2000/svg" xmlns:xlink="http://www.w3.org/1999/xlink" x="0px" y="0px"
	 viewBox="0 0 20 18" style="enable-background:new 0 0 20 18;" xml:space="preserve">
<style type="text/css">
	.st0{fill:#FFFFF5;}
	.st1{fill:#596370;}
	.st2{fill:#E95513;}
	.st3{fill:#FFFFE4;}
	.st4{fill:#FFFFFF;}
	.st5{fill:none;stroke:#E95513;stroke-miterlimit:10;}
</style>
<g id="Landing_Page_4">
</g>
<g id="Landing_Page_3">
</g>
<g id="Landing_Page_2">
</g>
<g id="Landing_Page_1">
	<g>
		<path class="st3" d="M16.3,9.7c-0.3,0-0.6,0.3-0.6,0.6v5.8H4.2v-5.8C4.2,10,4,9.7,3.7,9.7c-0.3,0-0.6,0.3-0.6,0.6v6.3
			c0,0.3,0.3,0.6,0.6,0.6h12.6c0.3,0,0.6-0.3,0.6-0.6v-6.3C16.9,10,16.6,9.7,16.3,9.7L16.3,9.7z M16.3,9.7"/>
		<path class="st3" d="M19.3,9.9L10.4,1c-0.2-0.2-0.6-0.2-0.8,0L0.7,9.9c-0.2,0.2-0.2,0.6,0,0.8c0.1,0.1,0.3,0.2,0.4,0.2
			c0.1,0,0.3-0.1,0.4-0.2L10,2.2l8.5,8.5c0.2,0.2,0.6,0.2,0.8,0C19.6,10.5,19.6,10.1,19.3,9.9L19.3,9.9z M19.3,9.9"/>
	</g>
</g>
<g id="Icons_and_Form_Fields">
</g>
</svg>
