<?xml version="1.0" encoding="utf-8"?>
<!-- Generator: Adobe Illustrator 21.0.2, SVG Export Plug-In . SVG Version: 6.00 Build 0)  -->
<svg version="1.1" xmlns="http://www.w3.org/2000/svg" xmlns:xlink="http://www.w3.org/1999/xlink" x="0px" y="0px"
	 viewBox="0 0 113 7" style="enable-background:new 0 0 113 7;" xml:space="preserve">
<style type="text/css">
	.st0{fill:#FFFFE4;}
	.st1{fill:#596370;}
	.st2{fill:#E95513;}
	.st3{fill:#FFFFF5;}
	.st4{fill:#FFFFFF;}
	.st5{fill:none;stroke:#E95513;stroke-miterlimit:10;}
</style>
<g id="Landing_Page_4">
</g>
<g id="Landing_Page_3">
</g>
<g id="Landing_Page_2">
	<g>
		<rect x="-0.6" y="3.1" transform="matrix(0.7907 -0.6122 0.6122 0.7907 -1.2613 3.3109)" class="st1" width="9.6" height="0.7"/>
		<rect x="6.3" y="3.1" transform="matrix(0.7907 -0.6122 0.6122 0.7907 0.1913 7.5596)" class="st1" width="9.6" height="0.7"/>
		<rect x="13.3" y="3.1" transform="matrix(0.7907 -0.6122 0.6122 0.7907 1.644 11.8084)" class="st1" width="9.6" height="0.7"/>
		<rect x="20.2" y="3.1" transform="matrix(0.7907 -0.6122 0.6122 0.7907 3.0967 16.0571)" class="st1" width="9.6" height="0.7"/>
		<rect x="27.2" y="3.1" transform="matrix(0.7907 -0.6122 0.6122 0.7907 4.5494 20.3059)" class="st1" width="9.6" height="0.7"/>
		<rect x="34.1" y="3.1" transform="matrix(0.7906 -0.6123 0.6123 0.7906 6.003 24.5562)" class="st1" width="9.6" height="0.7"/>
		<rect x="41" y="3.1" transform="matrix(0.7907 -0.6122 0.6122 0.7907 7.4547 28.8035)" class="st1" width="9.6" height="0.7"/>
		<rect x="48" y="3.1" transform="matrix(0.7907 -0.6122 0.6122 0.7907 8.9074 33.0522)" class="st1" width="9.6" height="0.7"/>
		<line class="st1" x1="55.7" y1="6.2" x2="56.2" y2="6.7"/>
		<rect x="55.4" y="3.1" transform="matrix(0.7907 -0.6122 0.6122 0.7907 10.4611 37.5963)" class="st1" width="9.6" height="0.7"/>
		<rect x="62.3" y="3.1" transform="matrix(0.7907 -0.6122 0.6122 0.7907 11.9137 41.8451)" class="st1" width="9.6" height="0.7"/>
		<rect x="69.3" y="3.1" transform="matrix(0.7907 -0.6122 0.6122 0.7907 13.3664 46.0938)" class="st1" width="9.6" height="0.7"/>
		<rect x="76.2" y="3.1" transform="matrix(0.7907 -0.6122 0.6122 0.7907 14.8191 50.3426)" class="st1" width="9.6" height="0.7"/>
		<rect x="83.2" y="3.1" transform="matrix(0.7907 -0.6122 0.6122 0.7907 16.2717 54.5913)" class="st1" width="9.6" height="0.7"/>
		<rect x="90.1" y="3.1" transform="matrix(0.7906 -0.6123 0.6123 0.7906 17.727 58.8437)" class="st1" width="9.6" height="0.7"/>
		<rect x="97" y="3.1" transform="matrix(0.7907 -0.6122 0.6122 0.7907 19.1772 63.089)" class="st1" width="9.6" height="0.7"/>
		<rect x="104" y="3.1" transform="matrix(0.7907 -0.6122 0.6122 0.7907 20.6299 67.3378)" class="st1" width="9.6" height="0.7"/>
		<line class="st1" x1="111.7" y1="6.2" x2="112.2" y2="6.7"/>
	</g>
</g>
<g id="Landing_Page_1">
</g>
<g id="Icons_and_Form_Fields">
</g>
</svg>
